# Blender 4.5.4 LTS
# www.blender.org
mtllib glassshards.mtl
o Plane
v -0.740911 0.022119 0.767818
v 0.531568 -0.039995 1.472219
v -0.737357 0.015408 -0.440210
v 0.535122 -0.046706 -1.230725
v -0.737357 0.015408 0.312816
v 0.535122 -0.046706 0.269759
v 0.000000 0.000000 1.150975
v 0.003554 -0.006711 -0.852951
v 0.003554 -0.006711 0.298024
v 0.176715 -0.027577 1.259684
v 0.180268 -0.034288 -0.982322
v 0.180268 -0.034288 0.287693
v -0.334673 0.007089 -0.661061
v -0.334673 0.007089 0.303175
v -0.338227 0.013800 0.969386
v -0.740911 0.022119 0.348127
v 0.531568 -0.039995 0.471735
v 0.000000 0.000000 0.500000
v 0.176715 -0.027577 0.489669
v -0.338227 0.013800 0.505150
v 0.535122 -0.046706 -0.230241
v -0.737357 0.015408 -0.020518
v 0.003554 -0.006711 -0.201976
v 0.180268 -0.034288 -0.212307
v -0.334673 0.007089 -0.196825
v -0.657938 0.195293 0.433340
v -0.565936 0.177479 0.660326
v 0.193045 0.095356 1.222249
v 0.524995 0.076959 1.259723
v 0.482408 0.075125 -0.160192
v 0.435925 0.081485 -1.205838
v -0.362563 0.158476 -0.586825
v -0.777812 0.206420 -0.491997
v -0.691263 0.191305 -0.007548
v -0.672745 0.190092 0.304342
v 0.458959 0.144296 0.503422
v 0.466921 0.137596 0.266586
v -0.323393 0.185413 0.301489
v -0.313099 0.109139 0.843061
v 0.010864 0.103332 1.084565
v 0.220869 0.084305 -0.892500
v 0.037546 0.130351 -0.735425
v 0.191548 0.144036 0.286007
v 0.014834 0.171613 0.296338
v 0.011280 0.178324 0.498314
v 0.014834 0.171613 -0.203662
v 0.187995 0.150746 0.487983
v 0.191548 0.144036 -0.213993
v -0.323393 0.185413 -0.198511
v -0.326946 0.192123 0.503464
vn -0.0350 -0.9994 -0.0000
vn -0.0333 -0.9989 0.0326
vn -0.0403 -0.9987 0.0325
vn -0.0408 -0.9992 -0.0000
vn -0.1524 -0.9879 0.0301
vn -0.1542 -0.9880 -0.0000
vn -0.0207 -0.9998 -0.0000
vn -0.0308 -0.9980 0.0555
vn 0.1242 0.9917 -0.0319
vn 0.0234 0.9993 -0.0299
vn 0.0403 0.9987 -0.0325
vn 0.0410 0.9964 -0.0746
vn 0.1524 0.9879 -0.0301
vn 0.1662 0.9832 -0.0749
vn 0.0605 0.9979 -0.0222
vn 0.0151 0.9992 -0.0365
vn 0.0487 0.9849 0.1661
vn 0.0637 0.9932 0.0978
vn -0.0310 0.9852 0.1686
vn 0.0340 0.9962 0.0804
vn 0.0150 0.9999 0.0012
vn 0.1542 0.9880 -0.0000
vn 0.0408 0.9992 -0.0000
vn 0.1355 0.9887 -0.0644
vn -0.9951 0.0254 0.0957
vn -0.3607 -0.0109 -0.9326
vn -0.9533 0.3007 0.0279
vn -0.2594 0.7613 0.5943
vn -0.4877 0.4119 0.7698
vn 0.9344 0.3559 0.0136
vn -0.6903 0.1637 -0.7048
vn -0.3812 0.6784 0.6281
vn -0.9228 0.3837 0.0354
vn -0.7759 0.6178 0.1274
vn -0.3900 0.6460 -0.6562
vn 0.9707 0.2387 -0.0273
vn -0.2129 0.7091 0.6722
vn 0.9293 0.3691 -0.0094
vn 0.8515 0.5241 -0.0177
vn -0.3310 0.5273 -0.7826
vt 0.750000 0.750000
vt 0.750000 1.000000
vt 1.000000 1.000000
vt 1.000000 0.750000
vt 0.750000 0.250000
vt 0.750000 0.500000
vt 1.000000 0.500000
vt 1.000000 0.250000
vt 0.250000 0.250000
vt 0.250000 0.500000
vt 0.500000 0.500000
vt 0.500000 0.250000
vt 0.250000 0.750000
vt 0.250000 1.000000
vt 0.500000 1.000000
vt 0.500000 0.750000
vt 0.000000 0.750000
vt 0.000000 1.000000
vt 0.000000 0.250000
vt 0.000000 0.500000
vt 0.000000 0.000000
vt 0.250000 0.000000
vt 0.500000 0.000000
vt 0.750000 0.000000
vt 1.000000 0.000000
s 0
f 24/1/1 11/2/1 4/3/1 21/4/1
f 19/5/2 12/6/2 6/7/2 17/8/2
f 20/9/3 14/10/3 9/11/3 18/12/3
f 25/13/4 13/14/4 8/15/4 23/16/4
f 18/12/5 9/11/5 12/6/5 19/5/5
f 23/16/6 8/15/6 11/2/6 24/1/6
f 22/17/7 3/18/7 13/14/7 25/13/7
f 16/19/8 5/20/8 14/10/8 20/9/8
f 1/21/7 16/19/7 20/9/7 15/22/7
f 7/23/6 18/12/6 19/5/6 10/24/6
f 15/22/4 20/9/4 18/12/4 7/23/4
f 10/24/1 19/5/1 17/8/1 2/25/1
f 5/20/7 22/17/7 25/13/7 14/10/7
f 9/11/6 23/16/6 24/1/6 12/6/6
f 14/10/4 25/13/4 23/16/4 9/11/4
f 12/6/1 24/1/1 21/4/1 6/7/1
f 48/1/9 30/4/9 31/3/9 41/2/9
f 47/5/10 36/8/10 37/7/10 43/6/10
f 50/9/11 45/12/11 44/11/11 38/10/11
f 49/13/12 46/16/12 42/15/12 32/14/12
f 45/12/13 47/5/13 43/6/13 44/11/13
f 46/16/14 48/1/14 41/2/14 42/15/14
f 34/17/15 49/13/15 32/14/15 33/18/15
f 26/19/16 50/9/16 38/10/16 35/20/16
f 27/21/17 39/22/17 50/9/17 26/19/17
f 40/23/18 28/24/18 47/5/18 45/12/18
f 39/22/19 40/23/19 45/12/19 50/9/19
f 28/24/20 29/25/20 36/8/20 47/5/20
f 35/20/21 38/10/21 49/13/21 34/17/21
f 44/11/22 43/6/22 48/1/22 46/16/22
f 38/10/23 44/11/23 46/16/23 49/13/23
f 43/6/24 37/7/24 30/4/24 48/1/24
f 3/18/25 22/17/25 34/17/25 33/18/25
f 13/14/26 3/18/26 33/18/26 32/14/26
f 22/17/27 5/20/27 35/20/27 34/17/27
f 1/21/28 15/22/28 39/22/28 27/21/28
f 7/23/29 10/24/29 28/24/29 40/23/29
f 17/8/30 6/7/30 37/7/30 36/8/30
f 4/3/31 11/2/31 41/2/31 31/3/31
f 15/22/32 7/23/32 40/23/32 39/22/32
f 5/20/33 16/19/33 26/19/33 35/20/33
f 16/19/34 1/21/34 27/21/34 26/19/34
f 11/2/35 8/15/35 42/15/35 41/2/35
f 2/25/36 17/8/36 36/8/36 29/25/36
f 10/24/37 2/25/37 29/25/37 28/24/37
f 6/7/38 21/4/38 30/4/38 37/7/38
f 21/4/39 4/3/39 31/3/39 30/4/39
f 8/15/40 13/14/40 32/14/40 42/15/40
o Plane.001
v 1.012941 -0.074496 -3.474004
v -0.107078 -0.057229 -3.382415
v -0.597795 -0.059456 -3.532313
v 0.404566 -0.058807 -3.375668
v -0.856707 -0.092943 -3.524498
v -0.706564 -0.113752 -3.262365
v 1.041282 -0.078808 -3.283328
v -0.103859 -0.058495 -3.263411
v -0.603859 -0.058495 -3.263411
v 0.396141 -0.058495 -3.263411
v 0.423245 -0.062867 -2.859830
v 0.397951 -0.057871 -3.623129
v 0.413856 -0.047106 -4.049490
v -0.284171 -0.089996 -4.191434
v -0.586727 -0.060418 -3.689730
v -0.344297 -0.095080 -2.840281
v -0.009264 -0.072426 -2.887155
v 0.036172 -0.064164 -4.056486
v -0.089645 -0.059760 -3.649286
v -0.894521 -0.087731 -3.782236
v 0.984599 -0.070183 -3.664681
v 0.969670 -0.055043 -4.077320
v -0.661579 -0.109394 -4.567117
v 1.149050 -0.094220 -2.850764
v -0.534921 -0.137852 -2.798385
v 1.017258 0.007932 -3.477772
v -0.109630 0.104977 -3.333396
v -0.591153 0.106274 -3.452028
v 0.408988 0.018046 -3.384266
v -0.775557 0.027802 -3.530304
v -0.747687 0.005132 -3.236931
v 1.035486 -0.049189 -3.241660
v -0.103375 0.020616 -3.245025
v -0.608582 0.060942 -3.260526
v 0.399325 0.025343 -3.247954
v 0.445034 0.060571 -2.946042
v 0.406683 0.037982 -3.570429
v 0.482852 0.067434 -3.926609
v -0.236826 0.020936 -4.232939
v -0.591449 0.059019 -3.686845
v -0.349020 0.024357 -2.837397
v -0.013987 0.047011 -2.884270
v 0.081584 0.050112 -3.957542
v -0.094367 0.059677 -3.646402
v -0.813563 0.033012 -3.765468
v 0.990726 0.018554 -3.628932
v 0.987077 -0.002549 -4.010112
v -0.630621 0.010596 -4.414406
v 1.032071 -0.003326 -2.973650
v -0.498209 -0.017790 -2.886605
vn 0.0024 -1.0000 -0.0008
vn -0.0378 -0.9991 -0.0175
vn 0.1092 -0.9939 -0.0172
vn 0.0221 -0.9986 0.0478
vn 0.0110 -0.9996 -0.0252
vn -0.0298 -0.9995 -0.0112
vn -0.0196 -0.9993 -0.0309
vn -0.0246 -0.9996 -0.0100
vn 0.2837 -0.9374 -0.2020
vn 0.2348 -0.9669 -0.0999
vn -0.0015 -1.0000 -0.0042
vn 0.0229 -0.9971 -0.0732
vn 0.0318 -0.9981 0.0530
vn 0.0013 -1.0000 0.0083
vn 0.0002 -1.0000 0.0031
vn 0.0220 -0.9997 -0.0039
vn -0.0188 0.9074 0.4198
vn 0.1087 0.9830 -0.1479
vn -0.2233 0.9723 -0.0688
vn -0.0121 0.9979 -0.0630
vn -0.0248 0.9959 -0.0875
vn 0.0764 0.9885 0.1305
vn 0.0844 0.9962 0.0196
vn 0.0358 0.9956 0.0871
vn -0.3309 0.8990 0.2870
vn -0.3993 0.9067 0.1358
vn 0.0929 0.9414 0.3243
vn 0.0212 0.9998 0.0036
vn -0.0315 0.9974 -0.0647
vn 0.0276 0.9858 -0.1658
vn 0.1070 0.9931 -0.0477
vn 0.0013 0.9995 0.0303
vn -0.0135 0.7542 -0.6565
vn 0.9886 -0.1487 -0.0220
vn 0.1398 -0.0184 0.9900
vn -0.8252 0.5476 0.1385
vn 0.0615 0.7108 0.7007
vn 0.0043 0.6949 -0.7191
vn -0.8808 0.1050 0.4616
vn 0.5410 -0.0083 -0.8410
vn 0.9937 0.0475 -0.1016
vn -0.7995 0.5468 -0.2487
vn -0.1066 0.3463 0.9320
vn 0.0282 0.3226 0.9461
vn 0.9867 -0.0304 -0.1597
vn -0.9410 0.1316 0.3118
vn 0.5699 0.1916 -0.7991
vn 0.7389 0.6593 -0.1387
vt 0.250000 0.250000
vt 0.250000 0.375000
vt 0.500000 0.375000
vt 0.500000 0.250000
vt 0.750000 0.000000
vt 0.750000 0.250000
vt 1.000000 0.250000
vt 1.000000 0.000000
vt 0.000000 0.375000
vt 0.000000 0.500000
vt 0.250000 0.500000
vt 0.250000 1.000000
vt 0.500000 1.000000
vt 0.500000 0.500000
vt 0.500000 0.000000
vt 0.750000 0.375000
vt 1.000000 0.375000
vt 0.750000 0.500000
vt 0.750000 1.000000
vt 1.000000 1.000000
vt 1.000000 0.500000
vt 0.000000 0.000000
vt 0.000000 0.250000
vt 0.250000 0.000000
vt 0.000000 1.000000
s 0
f 59/26/41 53/27/41 52/28/41 58/29/41
f 61/30/42 60/31/42 57/32/42 74/33/42
f 55/34/43 70/35/43 65/36/43 53/27/43
f 65/36/44 64/37/44 68/38/44 69/39/44
f 67/40/45 58/29/45 60/31/45 61/30/45
f 60/31/46 54/41/46 51/42/46 57/32/46
f 62/43/47 63/44/47 72/45/47 71/46/47
f 54/41/48 62/43/48 71/46/48 51/42/48
f 75/47/49 56/48/49 59/26/49 66/49/49
f 56/48/50 55/34/50 53/27/50 59/26/50
f 58/29/51 52/28/51 54/41/51 60/31/51
f 66/49/52 59/26/52 58/29/52 67/40/52
f 70/35/53 73/50/53 64/37/53 65/36/53
f 53/27/54 65/36/54 69/39/54 52/28/54
f 52/28/55 69/39/55 62/43/55 54/41/55
f 69/39/56 68/38/56 63/44/56 62/43/56
f 84/26/57 83/29/57 77/28/57 78/27/57
f 86/30/58 99/33/58 82/32/58 85/31/58
f 80/34/59 78/27/59 90/36/59 95/35/59
f 90/36/60 94/39/60 93/38/60 89/37/60
f 92/40/61 86/30/61 85/31/61 83/29/61
f 85/31/62 82/32/62 76/42/62 79/41/62
f 87/43/63 96/46/63 97/45/63 88/44/63
f 79/41/64 76/42/64 96/46/64 87/43/64
f 100/47/65 91/49/65 84/26/65 81/48/65
f 81/48/66 84/26/66 78/27/66 80/34/66
f 83/29/67 85/31/67 79/41/67 77/28/67
f 91/49/68 92/40/68 83/29/68 84/26/68
f 95/35/69 90/36/69 89/37/69 98/50/69
f 78/27/70 77/28/70 94/39/70 90/36/70
f 77/28/71 79/41/71 87/43/71 94/39/71
f 94/39/72 87/43/72 88/44/72 93/38/72
f 72/45/73 63/44/73 88/44/73 97/45/73
f 71/46/74 72/45/74 97/45/74 96/46/74
f 66/49/75 67/40/75 92/40/75 91/49/75
f 70/35/76 55/34/76 80/34/76 95/35/76
f 61/30/77 74/33/77 99/33/77 86/30/77
f 63/44/78 68/38/78 93/38/78 88/44/78
f 56/48/79 75/47/79 100/47/79 81/48/79
f 68/38/80 64/37/80 89/37/80 93/38/80
f 57/32/81 51/42/81 76/42/81 82/32/81
f 73/50/82 70/35/82 95/35/82 98/50/82
f 75/47/83 66/49/83 91/49/83 100/47/83
f 67/40/84 61/30/84 86/30/84 92/40/84
f 51/42/85 71/46/85 96/46/85 76/42/85
f 55/34/86 56/48/86 81/48/86 80/34/86
f 64/37/87 73/50/87 98/50/87 89/37/87
f 74/33/88 57/32/88 82/32/88 99/33/88
o Plane.002
v -5.077841 -0.418222 -1.042718
v -2.989784 -0.103864 -0.999196
v -5.053917 -0.424185 -4.105655
v -3.738515 0.099303 -3.957115
v -7.239922 0.167125 -2.317690
v -3.424822 0.013502 -2.707928
v -4.380807 -0.166875 -0.880782
v -4.380808 -0.166875 -4.131413
v -4.380808 -0.166875 -2.506098
v -5.798903 -0.222039 -1.378377
v -3.254683 -0.032285 -1.820175
v -4.380808 -0.166875 -1.693440
v -3.594138 0.059272 -3.518867
v -6.884418 0.072096 -2.734700
v -4.380808 -0.166875 -3.318755
v -5.307069 -0.170529 -1.334365
v -3.269801 0.132818 -1.105852
v -5.036252 -0.250962 -4.042607
v -3.714517 0.268532 -4.054837
v -7.485277 0.546039 -2.324473
v -3.583768 0.176982 -2.679078
v -4.397848 0.009771 -0.874172
v -4.401405 0.007571 -4.260184
v -4.413941 0.208212 -2.520108
v -5.718088 -0.088917 -1.591074
v -3.405760 0.131893 -1.783032
v -4.280555 0.181176 -2.038884
v -3.752192 0.222836 -3.490157
v -6.901459 0.248742 -2.728090
v -4.438168 0.367585 -3.320532
vn 0.3239 -0.9437 -0.0676
vn 0.1431 -0.9889 -0.0409
vn -0.0820 -0.9851 -0.1513
vn 0.0567 -0.9623 0.2662
vn 0.1221 -0.9628 -0.2411
vn 0.0728 -0.9958 -0.0554
vn -0.0993 -0.9939 0.0481
vn 0.2159 -0.9751 -0.0500
vn -0.0771 0.9752 -0.2076
vn 0.0447 0.9981 0.0422
vn 0.0696 0.9177 0.3912
vn -0.2347 0.8257 -0.5129
vn -0.1854 0.9601 0.2092
vn -0.0378 0.9950 0.0925
vn 0.0248 0.9944 -0.1024
vn 0.1379 0.9844 0.1089
vn 0.4159 -0.5033 -0.7574
vn 0.7120 0.6945 -0.1036
vn -0.3805 0.2583 0.8880
vn 0.9302 0.3606 -0.0681
vn 0.6861 0.7119 -0.1500
vn -0.1085 -0.1855 -0.9766
vn 0.7044 0.7016 -0.1070
vn -0.1364 0.7709 0.6222
vn -0.4165 0.3278 0.8479
vn -0.6955 -0.3287 -0.6389
vn -0.5506 0.1639 -0.8185
vn 0.1087 0.3070 0.9455
vt 0.500000 0.750000
vt 0.500000 1.000000
vt 1.000000 1.000000
vt 1.000000 0.750000
vt 0.500000 0.250000
vt 0.500000 0.500000
vt 1.000000 0.500000
vt 1.000000 0.250000
vt 0.000000 0.250000
vt 0.000000 0.500000
vt 0.000000 0.750000
vt 0.000000 1.000000
vt 0.000000 0.000000
vt 0.500000 0.000000
vt 1.000000 0.000000
s 0
f 115/51/89 108/52/89 104/53/89 113/54/89
f 112/55/90 109/56/90 106/57/90 111/58/90
f 110/59/91 105/60/91 109/56/91 112/55/91
f 114/61/92 103/62/92 108/52/92 115/51/92
f 101/63/93 110/59/93 112/55/93 107/64/93
f 107/64/94 112/55/94 111/58/94 102/65/94
f 105/60/95 114/61/95 115/51/95 109/56/95
f 109/56/96 115/51/96 113/54/96 106/57/96
f 130/51/97 128/54/97 119/53/97 123/52/97
f 127/55/98 126/58/98 121/57/98 124/56/98
f 125/59/99 127/55/99 124/56/99 120/60/99
f 129/61/100 130/51/100 123/52/100 118/62/100
f 116/63/101 122/64/101 127/55/101 125/59/101
f 122/64/102 117/65/102 126/58/102 127/55/102
f 120/60/103 124/56/103 130/51/103 129/61/103
f 124/56/104 121/57/104 128/54/104 130/51/104
f 104/53/105 108/52/105 123/52/105 119/53/105
f 111/58/106 106/57/106 121/57/106 126/58/106
f 105/60/107 110/59/107 125/59/107 120/60/107
f 113/54/108 104/53/108 119/53/108 128/54/108
f 102/65/109 111/58/109 126/58/109 117/65/109
f 108/52/110 103/62/110 118/62/110 123/52/110
f 106/57/111 113/54/111 128/54/111 121/57/111
f 110/59/112 101/63/112 116/63/112 125/59/112
f 101/63/113 107/64/113 122/64/113 116/63/113
f 114/61/114 105/60/114 120/60/114 129/61/114
f 103/62/115 114/61/115 129/61/115 118/62/115
f 107/64/116 102/65/116 117/65/116 122/64/116
o Plane.003
v -2.677970 -0.484730 -8.144420
v -1.694718 -0.423785 -8.536631
v -3.145224 -0.454175 -9.696221
v -1.802952 -0.411784 -9.217944
v -2.852777 -0.472425 -8.761154
v -1.236748 -0.448915 -8.787301
v -2.184269 -0.454131 -8.277847
v -2.384980 -0.438498 -9.466430
v -2.236748 -0.448915 -8.787301
v -2.610516 -0.394304 -8.231560
v -2.016063 -0.268458 -8.537715
v -2.904761 -0.354755 -9.484468
v -1.735893 -0.336461 -9.036839
v -2.697652 -0.377187 -8.782782
v -1.239577 -0.362766 -8.785790
v -2.395546 -0.304088 -8.492764
v -2.387809 -0.352349 -9.464919
v -2.239577 -0.362766 -8.785790
vn 0.0262 -0.9979 -0.0596
vn 0.0274 -0.9988 0.0408
vn 0.0451 -0.9987 -0.0246
vn 0.0324 -0.9991 -0.0266
vn -0.0241 0.9981 0.0561
vn -0.0351 0.9442 -0.3274
vn -0.1773 0.9821 -0.0628
vn -0.0177 0.9994 0.0283
vn 0.1745 0.8092 0.5611
vn 0.3668 0.4910 0.7902
vn 0.1332 0.6694 -0.7309
vn 0.1679 0.7475 0.6427
vn 0.3544 0.6352 -0.6863
vn -0.5008 0.8479 0.1739
vn 0.4658 0.5752 -0.6724
vn -0.5883 0.7943 0.1519
vt 0.500000 0.500000
vt 0.500000 1.000000
vt 1.000000 1.000000
vt 1.000000 0.500000
vt 0.500000 0.000000
vt 1.000000 0.000000
vt 0.000000 0.000000
vt 0.000000 0.500000
vt 0.000000 1.000000
s 0
f 139/66/117 138/67/117 134/68/117 136/69/117
f 137/70/118 139/66/118 136/69/118 132/71/118
f 131/72/119 135/73/119 139/66/119 137/70/119
f 135/73/120 133/74/120 138/67/120 139/66/120
f 148/66/121 145/69/121 143/68/121 147/67/121
f 146/70/122 141/71/122 145/69/122 148/66/122
f 140/72/123 146/70/123 148/66/123 144/73/123
f 144/73/124 148/66/124 147/67/124 142/74/124
f 131/72/125 137/70/125 146/70/125 140/72/125
f 132/71/126 136/69/126 145/69/126 141/71/126
f 138/67/127 133/74/127 142/74/127 147/67/127
f 137/70/128 132/71/128 141/71/128 146/70/128
f 134/68/129 138/67/129 147/67/129 143/68/129
f 133/74/130 135/73/130 144/73/130 142/74/130
f 136/69/131 134/68/131 143/68/131 145/69/131
f 135/73/132 131/72/132 140/72/132 144/73/132
o Plane.004
v -4.075880 -0.161793 6.853299
v -2.329748 -0.214516 6.468322
v -2.944814 -0.261607 4.633848
v -2.355974 -0.380070 4.660611
v -3.197468 -0.286872 5.335628
v -2.398209 -0.383963 5.635462
v -3.005237 -0.162559 6.484025
v -2.677433 -0.328137 4.271957
v -2.677433 -0.328137 5.271957
v -3.874817 -0.052649 6.717975
v -2.394722 -0.042582 6.378680
v -2.716257 -0.169717 5.004080
v -2.460823 -0.140088 4.759443
v -3.545492 -0.064153 6.054051
v -2.301851 -0.264870 5.646691
v -2.965295 -0.013807 6.301497
v -2.638505 -0.157014 4.367266
v -2.659011 -0.177916 5.264208
vn -0.1698 -0.9855 -0.0056
vn -0.1612 -0.9770 0.1396
vn 0.0029 -0.9942 0.1071
vn -0.1555 -0.9871 -0.0377
vn 0.0142 0.9967 0.0803
vn 0.2023 0.9653 -0.1652
vn -0.0366 0.9926 -0.1161
vn 0.1135 0.9935 0.0063
vn -0.4127 0.8620 -0.2944
vn 0.9973 0.0419 -0.0596
vn -0.7662 0.4561 -0.4527
vn 0.2746 0.6342 0.7228
vn 0.9945 -0.0966 0.0397
vn -0.4747 0.8547 -0.2101
vn 0.0043 0.6473 0.7622
vn 0.7936 0.3592 -0.4912
vt 0.500000 0.500000
vt 0.500000 1.000000
vt 1.000000 1.000000
vt 1.000000 0.500000
vt 0.500000 0.000000
vt 1.000000 0.000000
vt 0.000000 0.000000
vt 0.000000 0.500000
vt 0.000000 1.000000
s 0
f 157/75/133 156/76/133 152/77/133 154/78/133
f 155/79/134 157/75/134 154/78/134 150/80/134
f 149/81/135 153/82/135 157/75/135 155/79/135
f 153/82/136 151/83/136 156/76/136 157/75/136
f 166/75/137 163/78/137 161/77/137 165/76/137
f 164/79/138 159/80/138 163/78/138 166/75/138
f 158/81/139 164/79/139 166/75/139 162/82/139
f 162/82/140 166/75/140 165/76/140 160/83/140
f 151/83/141 153/82/141 162/82/141 160/83/141
f 154/78/142 152/77/142 161/77/142 163/78/142
f 153/82/143 149/81/143 158/81/143 162/82/143
f 149/81/144 155/79/144 164/79/144 158/81/144
f 150/80/145 154/78/145 163/78/145 159/80/145
f 156/76/146 151/83/146 160/83/146 165/76/146
f 155/79/147 150/80/147 159/80/147 164/79/147
f 152/77/148 156/76/148 165/76/148 161/77/148
