# Blender 4.5.0
# www.blender.org
mtllib Sticky Hand.mtl
o Cylinder.002
v 0.089855 0.105446 0.015587
v 0.104972 0.311208 0.015660
v -0.111491 0.105446 0.014614
v -0.181364 0.250841 0.014276
v 0.090018 0.105446 -0.018058
v 0.105135 0.311208 -0.017985
v -0.111393 0.105446 -0.005632
v -0.181260 0.250841 -0.007204
v -0.041348 0.105446 0.014953
v -0.055035 0.403967 0.014887
v -0.041161 0.105446 -0.023789
v -0.054873 0.403967 -0.018759
v -0.131150 0.337600 0.014519
v -0.075987 0.105446 -0.018861
v -0.076150 0.105446 0.014785
v -0.130987 0.337600 -0.019127
v 0.038237 0.105446 0.015338
v 0.045486 0.401737 -0.018273
v 0.045323 0.401737 0.015372
v 0.038430 0.105446 -0.024494
v 0.101003 0.251325 0.015641
v -0.172742 0.223484 0.014317
v -0.172644 0.223484 -0.005928
v 0.101166 0.251325 -0.018004
v -0.047995 0.304887 -0.025875
v -0.048192 0.304887 0.014920
v -0.120214 0.271703 -0.019075
v -0.120376 0.271703 0.014571
v 0.036115 0.303772 0.015327
v 0.036298 0.303772 -0.022550
v -0.111491 0.105446 0.014614
v -0.111329 0.105446 -0.019032
v -0.111491 0.105446 0.014614
v -0.111329 0.105446 -0.019032
v 0.138833 0.155922 -0.008282
v 0.114360 0.096373 -0.004905
v 0.114260 0.096373 0.015705
v 0.138716 0.155922 0.015824
v 0.007520 0.005142 0.010239
v 0.018183 0.005142 0.010290
v -0.029195 0.005142 -0.003008
v -0.023410 0.005142 0.010089
v -0.016004 0.005142 -0.011595
v 0.018288 0.005142 -0.011429
v -0.016109 0.005142 0.010124
v -0.008920 0.005142 0.010159
v 0.007625 0.005142 -0.011481
v -0.008815 0.005142 -0.011560
v 0.023504 0.005304 0.010316
v 0.033283 0.005304 -0.003183
v 0.131238 0.264677 -0.013185
v 0.131120 0.264677 0.011114
v 0.190374 0.211569 -0.006069
v 0.190290 0.211569 0.011400
v 0.169124 0.301415 -0.007145
v 0.169063 0.301415 0.005439
v 0.213066 0.276388 -0.006932
v 0.213005 0.276388 0.005652
v 0.064219 0.426615 -0.011840
v 0.121561 0.393241 -0.011563
v 0.121459 0.393241 0.009397
v 0.064117 0.426615 0.009120
v 0.040801 0.428737 0.011537
v -0.036830 0.428480 0.011162
v -0.036704 0.428480 -0.014858
v 0.040927 0.428737 -0.014483
v -0.136742 0.381117 -0.015448
v -0.071886 0.417422 -0.015135
v -0.072013 0.417422 0.011098
v -0.136869 0.381117 0.010785
v -0.155057 0.345034 0.010687
v -0.199726 0.284520 0.010471
v -0.199651 0.284520 -0.005119
v -0.154930 0.345034 -0.015526
v 0.090023 0.480200 -0.010139
v 0.142690 0.460109 -0.009885
v 0.142604 0.460109 0.007924
v 0.089937 0.480200 0.007669
v 0.124811 0.545416 -0.006937
v 0.159532 0.532171 -0.006769
v 0.159475 0.532171 0.004971
v 0.124755 0.545416 0.004803
v 0.041472 0.506029 0.009755
v -0.025302 0.511241 0.009432
v -0.025193 0.511241 -0.013017
v 0.041581 0.506029 -0.012694
v 0.030897 0.597016 0.005216
v -0.009301 0.596834 0.005021
v -0.009236 0.596834 -0.008452
v 0.030962 0.597016 -0.008257
v -0.151205 0.462804 -0.011243
v -0.102473 0.474443 -0.011008
v -0.102558 0.474443 0.006676
v -0.151291 0.462804 0.006440
v -0.160914 0.530234 -0.009105
v -0.124877 0.541380 -0.008931
v -0.124941 0.541380 0.004383
v -0.160979 0.530234 0.004208
v -0.177016 0.373576 0.008441
v -0.234091 0.347056 0.008165
v -0.234037 0.347056 -0.003145
v -0.176910 0.373576 -0.013493
v -0.207594 0.409991 0.002193
v -0.234918 0.404199 0.002061
v -0.234871 0.404199 -0.007673
v -0.207547 0.409991 -0.007541
v -0.041770 0.104816 -0.014952
v -0.117956 0.090282 0.004825
v -0.192576 0.245561 0.003805
v 0.113258 0.310032 -0.001212
v -0.055806 0.415342 -0.002030
v -0.144641 0.350188 -0.002459
v 0.046952 0.413481 -0.001533
v 0.115784 0.272099 -0.001200
v -0.183370 0.216344 0.004509
v 0.123143 0.080592 0.005796
v 0.149271 0.144189 0.004056
v -0.034853 0.004943 0.003735
v 0.035229 0.005116 0.003948
v 0.142446 0.287618 -0.001071
v 0.204333 0.203620 0.002876
v 0.171598 0.314520 -0.000930
v 0.227456 0.284460 -0.000660
v 0.130833 0.397642 -0.001127
v 0.063868 0.441091 -0.001451
v -0.041327 0.437098 -0.001960
v 0.044705 0.435551 -0.001544
v -0.073957 0.429711 -0.002118
v -0.145043 0.384693 -0.002461
v -0.212201 0.281530 0.002887
v -0.154164 0.352090 -0.002505
v 0.155228 0.470097 -0.001009
v 0.087012 0.492855 -0.001339
v 0.165425 0.541332 -0.000960
v 0.126262 0.557300 -0.001149
v -0.029024 0.525485 -0.001900
v 0.045412 0.518097 -0.001540
v -0.008836 0.615075 -0.001803
v 0.034094 0.615270 -0.001595
v -0.105040 0.491650 -0.002268
v -0.160468 0.471934 -0.002536
v -0.123231 0.552468 -0.002356
v -0.169524 0.540305 -0.002580
v -0.248914 0.348317 0.002709
v -0.177627 0.382572 -0.002619
v -0.243296 0.412988 -0.002936
v -0.209795 0.421203 -0.002774
v 0.142468 0.289780 0.001387
v -0.017732 -0.006481 0.001849
v -0.012001 -0.006382 0.005031
v -0.008292 -0.006382 -0.005829
v -0.014899 -0.006382 -0.001529
v 0.017367 -0.006395 0.001955
v 0.016392 -0.006300 -0.001616
v 0.008882 -0.006382 -0.005746
v 0.011495 -0.006300 0.005144
vn -0.0048 -0.0000 1.0000
vn -0.6138 -0.2199 -0.7582
vn 0.0638 0.0218 -0.9977
vn 0.8286 -0.0123 0.5598
vn 0.1025 -0.1487 -0.9836
vn 0.8411 -0.1486 -0.5201
vn 0.5032 0.7003 -0.5063
vn -0.0065 -0.1249 -0.9921
vn -0.0671 0.0355 -0.9971
vn -0.1741 -0.0502 -0.9835
vn -0.3883 -0.3179 -0.8650
vn -0.5353 -0.2370 0.8108
vn 0.0064 0.1460 -0.9893
vn -0.0048 -0.0493 0.9988
vn 0.0216 0.0575 -0.9981
vn 0.0160 -0.0000 -0.9999
vn -0.2403 -0.0909 -0.9664
vn -0.1026 -0.0206 -0.9945
vn 0.0953 0.0033 -0.9954
vn -0.5598 -0.2924 -0.7753
vn 0.5680 -0.2229 0.7923
vn 0.3867 -0.3460 -0.8548
vn 0.1165 -0.0366 -0.9925
vn 0.2552 -0.0599 -0.9650
vn -0.4929 -0.4450 -0.7477
vn -0.1144 -0.1481 -0.9823
vn -0.0172 -0.0412 0.9990
vn 0.3481 -0.4101 0.8430
vn 0.0754 0.0059 -0.9971
vn -0.2692 0.6391 0.7205
vn 0.0687 0.0480 0.9965
vn 0.4162 -0.3782 -0.8269
vn 0.2039 0.3774 0.9033
vn 0.4664 -0.1729 -0.8675
vn 0.0551 0.0790 0.9953
vn -0.4532 0.5395 0.7096
vn 0.0155 0.0220 -0.9996
vn -0.7015 0.5329 0.4733
vn 0.0972 0.0872 -0.9914
vn 0.0876 0.0872 0.9923
vn 0.0056 0.0222 -0.9997
vn -0.6998 0.5320 0.4768
vn -0.0032 0.1460 0.9893
vn 0.9525 0.1524 -0.2636
vn -0.8161 -0.1295 0.5632
vn -0.0681 0.1000 -0.9927
vn -0.8215 -0.0372 0.5690
vn -0.0777 0.1000 0.9919
vn -0.1557 -0.0530 -0.9864
vn -0.1704 -0.0393 -0.9846
vn 0.1870 0.8547 -0.4843
vn -0.1120 0.0690 0.9913
vn 0.0099 0.0386 0.9992
vn -0.7256 0.3448 0.5955
vn 0.7256 -0.2287 -0.6491
vn 0.0059 0.0220 0.9997
vn 0.1691 0.4385 0.8827
vn 0.0196 0.0386 -0.9991
vn -0.6334 0.3758 0.6764
vn 0.6889 -0.1142 -0.7158
vn 0.0072 0.0507 -0.9987
vn -0.0041 0.0222 0.9997
vn 0.9546 -0.0048 -0.2977
vn -0.8973 0.1291 0.4222
vn -0.0061 0.3505 0.9365
vn -0.0024 0.0507 0.9987
vn 0.8471 0.1109 -0.5198
vn -0.8517 0.1880 0.4891
vn 0.8449 0.2756 -0.4584
vn 0.8032 0.4302 -0.4120
vn -0.0277 0.0541 0.9982
vn -0.0180 0.0541 -0.9984
vn -0.1454 0.4991 0.8543
vn -0.0130 0.0305 0.9994
vn -0.0034 0.0305 -0.9995
vn -0.7129 -0.0867 0.6959
vn 0.5959 0.5443 -0.5904
vn -0.0311 0.0307 0.9990
vn 0.7252 0.5708 -0.3850
vn -0.4107 -0.2087 0.8875
vn -0.0970 0.4023 0.9104
vn -0.3709 0.1036 0.9229
vn -0.1116 -0.0224 -0.9935
vn -0.0487 0.1146 0.9922
vn -0.4338 -0.0581 -0.8992
vn -0.0854 0.3901 -0.9168
vn -0.4284 -0.2233 -0.8756
vn 0.7232 0.5720 0.3871
vn 0.5959 0.5483 0.5868
vn -0.6979 -0.0855 -0.7111
vn -0.1344 0.4893 -0.8617
vn 0.8017 0.4312 0.4139
vn 0.8448 0.2768 0.4580
vn -0.8425 0.1873 -0.5051
vn 0.8468 0.1112 0.5201
vn 0.0030 0.3424 -0.9395
vn -0.8906 0.1288 -0.4361
vn 0.9530 -0.0048 0.3029
vn 0.6908 -0.1160 0.7137
vn -0.6193 0.3717 -0.6916
vn 0.1736 0.4281 -0.8869
vn 0.7250 -0.2306 0.6490
vn -0.7148 0.3426 -0.6096
vn 0.1835 0.8571 0.4814
vn -0.8126 -0.0367 -0.5816
vn -0.8062 -0.1285 -0.5775
vn 0.9508 0.1523 0.2697
vn -0.6928 0.5308 -0.4881
vn -0.6941 0.5317 -0.4853
vn -0.4405 0.5341 -0.7216
vn 0.4603 -0.0886 0.8833
vn 0.2079 0.3687 -0.9060
vn 0.4170 -0.3455 0.8407
vn -0.2596 0.6348 -0.7278
vn 0.4820 -0.4885 -0.7274
vn -0.4031 -0.3967 0.8247
vn 0.5622 -0.2636 -0.7838
vn -0.5429 -0.2797 0.7919
vn -0.5371 -0.2798 -0.7958
vn 0.5004 0.7023 0.5064
vn 0.8390 -0.1494 0.5232
vn 0.8312 -0.0122 -0.5558
vn -0.6113 -0.1825 0.7701
vn 0.3507 -0.6593 0.6651
vn -0.4292 -0.6172 -0.6594
vn 0.0043 -0.4451 -0.8955
vn 0.3762 -0.6383 -0.6716
vn 0.5471 -0.8194 -0.1709
vn -0.0030 -0.4045 0.9146
vn -0.3601 -0.6502 0.6690
vn -0.5267 -0.7129 -0.4630
vn 0.0023 -1.0000 0.0022
vt 0.500000 0.187500
vt 0.625000 0.187500
vt 0.625000 0.250000
vt 0.500000 0.250000
vt 0.500000 0.375000
vt 0.625000 0.375000
vt 0.625000 0.500000
vt 0.500000 0.500000
vt 0.500000 0.687500
vt 0.625000 0.687500
vt 0.625000 0.750000
vt 0.500000 0.750000
vt 0.500000 0.875000
vt 0.625000 0.875000
vt 0.625000 1.000000
vt 0.500000 1.000000
vt 0.375000 0.687500
vt 0.375000 0.750000
vt 0.625000 0.875000
vt 0.750000 0.625000
vt 0.625000 0.625000
vt 0.375000 0.625000
vt 0.500000 0.562500
vt 0.625000 0.562500
vt 0.500000 0.625000
vt 0.500000 0.062500
vt 0.625000 0.062500
vt 0.625000 0.125000
vt 0.500000 0.125000
vt 0.375000 0.500000
vt 0.375000 0.562500
vt 0.625000 0.375000
vt 0.500000 0.000000
vt 0.625000 0.000000
vt 0.375000 0.000000
vt 0.375000 0.062500
vt 0.375000 0.125000
vt 0.375000 0.187500
vt 0.375000 0.375000
vt 0.375000 0.250000
vt 0.375000 0.875000
vt 0.500000 0.875000
vt 0.375000 1.000000
vt 0.500000 0.875000
vt 0.500000 0.875000
vt 0.750000 0.687500
vt 0.875000 0.687500
vt 0.750000 0.687500
vt 0.875000 0.625000
vt 0.750000 0.687500
vt 0.750000 0.562500
vt 0.875000 0.562500
vt 0.750000 0.562500
vt 0.750000 0.562500
vt 0.750000 0.562500
vt 0.625000 0.875000
vt 0.750000 0.687500
vt 0.875000 0.750000
vt 0.750000 0.750000
vt 0.750000 0.687500
vt 0.750000 0.625000
vt 0.750000 0.500000
vt 0.875000 0.500000
vt 0.000000 0.000000
s 0
f 28/1/1 13/2/1 4/3/1 22/4/1
f 115/5/2 109/6/2 8/7/2 23/8/2
f 30/9/3 18/10/3 6/11/3 24/12/3
f 114/13/4 110/14/4 2/15/4 21/16/4
f 20/17/5 5/18/5 44/18/5 47/17/5
f 110/14/6 6/11/6 60/11/6 124/19/6
f 111/20/7 12/21/7 68/21/7 128/20/7
f 11/22/8 20/17/8 47/17/8 48/22/8
f 27/23/9 16/24/9 12/21/9 25/25/9
f 29/26/1 19/27/1 10/28/1 26/29/1
f 23/8/10 8/7/10 16/24/10 27/23/10
f 7/30/11 14/31/11 43/31/11 41/30/11
f 109/6/12 4/3/12 72/3/12 130/32/12
f 26/29/1 10/28/1 13/2/1 28/1/1
f 21/33/1 2/34/1 19/27/1 29/26/1
f 18/10/13 12/21/13 65/21/13 66/10/13
f 1/35/14 17/36/14 39/36/14 40/35/14
f 25/25/15 12/21/15 18/10/15 30/9/15
f 11/22/16 25/25/16 30/9/16 20/17/16
f 1/35/1 21/33/1 29/26/1 17/36/1
f 9/37/1 26/29/1 28/1/1 15/38/1
f 7/30/17 23/8/17 27/23/17 14/31/17
f 17/36/1 29/26/1 26/29/1 9/37/1
f 14/31/18 27/23/18 25/25/18 11/22/18
f 21/33/1 1/35/1 37/35/1 38/33/1
f 20/17/19 30/9/19 24/12/19 5/18/19
f 108/39/20 115/5/20 23/8/20 7/30/20
f 15/38/1 28/1/1 22/4/1 3/40/1
f 116/41/21 117/42/21 38/16/21 37/43/21
f 5/18/22 36/18/22 50/18/22 44/18/22
f 35/12/23 24/12/23 51/12/23 53/12/23
f 5/18/24 24/12/24 35/12/24 36/18/24
f 108/39/25 7/30/25 41/30/25 118/39/25
f 14/31/26 11/22/26 48/22/26 43/31/26
f 37/35/27 1/35/27 40/35/27 49/35/27
f 17/36/14 9/37/14 46/37/14 39/36/14
f 116/41/28 37/43/28 49/43/28 119/41/28
f 15/38/14 3/40/14 42/40/14 45/38/14
f 9/37/14 15/38/14 45/38/14 46/37/14
f 53/12/29 51/12/29 55/12/29 57/12/29
f 114/13/30 21/16/30 52/16/30 120/44/30
f 21/33/31 38/33/31 54/33/31 52/33/31
f 117/42/32 35/12/32 53/12/32 121/42/32
f 122/44/33 56/16/33 58/16/33 123/45/33
f 121/42/34 53/12/34 57/12/34 123/45/34
f 52/33/35 54/33/35 58/33/35 56/33/35
f 120/44/36 52/16/36 56/16/36 122/44/36
f 60/11/37 59/10/37 75/10/37 76/11/37
f 113/46/38 19/47/38 62/47/38 125/48/38
f 6/11/39 18/10/39 59/10/39 60/11/39
f 19/27/40 2/34/40 61/34/40 62/27/40
f 66/10/41 65/21/41 85/21/41 86/10/41
f 111/20/42 10/49/42 64/49/42 126/20/42
f 10/28/43 19/27/43 63/27/43 64/28/43
f 113/46/44 18/10/44 66/10/44 127/50/44
f 129/51/45 70/52/45 94/52/45 141/53/45
f 12/21/46 16/24/46 67/24/46 68/21/46
f 112/54/47 13/52/47 70/52/47 129/51/47
f 13/2/48 10/28/48 69/28/48 70/2/48
f 74/24/49 73/7/49 101/7/49 102/24/49
f 16/24/50 8/7/50 73/7/50 74/24/50
f 112/54/51 16/24/51 74/24/51 131/55/51
f 4/3/52 13/2/52 71/2/52 72/3/52
f 78/27/53 77/34/53 81/34/53 82/27/53
f 125/48/54 62/47/54 78/47/54 133/50/54
f 124/19/55 60/11/55 76/11/55 132/56/55
f 62/27/56 61/34/56 77/34/56 78/27/56
f 135/57/57 82/47/57 81/58/57 134/59/57
f 76/11/58 75/10/58 79/10/58 80/11/58
f 133/50/59 78/47/59 82/47/59 135/57/59
f 132/56/60 76/11/60 80/11/60 134/56/60
f 86/10/61 85/21/61 89/21/61 90/10/61
f 64/28/62 63/27/62 83/27/62 84/28/62
f 127/50/63 66/10/63 86/10/63 137/60/63
f 126/20/64 64/49/64 84/49/64 136/20/64
f 138/20/65 88/49/65 87/47/65 139/50/65
f 84/28/66 83/27/66 87/27/66 88/28/66
f 137/60/67 86/10/67 90/10/67 139/50/67
f 136/20/68 84/49/68 88/49/68 138/20/68
f 140/61/69 92/21/69 96/21/69 142/20/69
f 128/20/70 68/21/70 92/21/70 140/61/70
f 70/2/71 69/28/71 93/28/71 94/2/71
f 68/21/72 67/24/72 91/24/72 92/21/72
f 143/53/73 98/52/73 97/49/73 142/20/73
f 94/2/74 93/28/74 97/28/74 98/2/74
f 92/21/75 91/24/75 95/24/75 96/21/75
f 141/53/76 94/52/76 98/52/76 143/53/76
f 145/55/77 102/24/77 106/24/77 147/55/77
f 72/3/78 71/2/78 99/2/78 100/3/78
f 131/55/79 74/24/79 102/24/79 145/55/79
f 130/32/80 72/3/80 100/3/80 144/6/80
f 146/62/81 104/63/81 103/52/81 147/55/81
f 144/6/82 100/3/82 104/3/82 146/6/82
f 102/24/83 101/7/83 105/7/83 106/24/83
f 100/3/84 99/2/84 103/2/84 104/3/84
f 101/7/85 144/6/85 146/6/85 105/7/85
f 105/7/86 146/62/86 147/55/86 106/24/86
f 73/7/87 130/32/87 144/6/87 101/7/87
f 71/52/88 131/55/88 145/55/88 99/52/88
f 99/52/89 145/55/89 147/55/89 103/52/89
f 91/24/90 141/53/90 143/53/90 95/24/90
f 95/24/91 143/53/91 142/20/91 96/21/91
f 69/49/92 128/20/92 140/61/92 93/49/92
f 93/49/93 140/61/93 142/20/93 97/49/93
f 85/21/94 136/20/94 138/20/94 89/21/94
f 83/47/95 137/60/95 139/50/95 87/47/95
f 89/21/96 138/20/96 139/50/96 90/10/96
f 65/21/97 126/20/97 136/20/97 85/21/97
f 63/47/98 127/50/98 137/60/98 83/47/98
f 77/15/99 132/56/99 134/56/99 81/15/99
f 75/10/100 133/50/100 135/57/100 79/10/100
f 79/10/101 135/57/101 134/59/101 80/11/101
f 61/15/102 124/19/102 132/56/102 77/15/102
f 59/10/103 125/48/103 133/50/103 75/10/103
f 13/52/104 112/54/104 131/55/104 71/52/104
f 16/24/105 112/54/105 129/51/105 67/24/105
f 67/24/106 129/51/106 141/53/106 91/24/106
f 19/47/107 113/46/107 127/50/107 63/47/107
f 12/21/108 111/20/108 126/20/108 65/21/108
f 18/10/109 113/46/109 125/48/109 59/10/109
f 51/12/110 120/44/110 122/44/110 55/12/110
f 54/16/111 121/42/111 123/45/111 58/16/111
f 55/12/112 122/44/112 123/45/112 57/12/112
f 38/16/113 117/42/113 121/42/113 54/16/113
f 24/12/114 114/13/114 120/44/114 51/12/114
f 36/18/115 116/41/115 119/41/115 50/18/115
f 3/40/116 108/39/116 118/39/116 42/40/116
f 36/18/117 35/12/117 117/42/117 116/41/117
f 3/40/118 22/4/118 115/5/118 108/39/118
f 8/7/119 109/6/119 130/32/119 73/7/119
f 10/49/120 111/20/120 128/20/120 69/49/120
f 2/15/121 110/14/121 124/19/121 61/15/121
f 24/12/122 6/11/122 110/14/122 114/13/122
f 22/4/123 4/3/123 109/6/123 115/5/123
f 119/41/124 49/43/124 156/43/124 153/41/124
f 41/30/125 43/31/125 151/31/125 152/30/125
f 43/64/126 44/64/126 155/64/126 151/64/126
f 44/18/127 50/18/127 154/18/127 155/18/127
f 50/18/128 119/41/128 153/41/128 154/18/128
f 49/64/129 42/64/129 150/64/129 156/64/129
f 42/40/130 118/39/130 149/39/130 150/40/130
f 118/39/131 41/30/131 152/30/131 149/39/131
f 151/64/132 155/18/132 154/18/132 153/41/132 156/64/132 150/40/132 149/39/132 152/30/132
l 32 31
l 34 33
