# Blender 4.5.4 LTS
# www.blender.org
mtllib Banana_1.mtl
o Cube
v 0.004056 -0.018416 0.087773
v 0.002982 0.007722 0.089656
v 0.002451 0.001610 0.097301
v -0.011360 -0.007693 0.050775
v -0.010612 -0.018510 0.083109
v -0.005939 0.002556 0.096488
v 0.014519 -0.045654 0.029890
v -0.007154 -0.048617 0.036201
v 0.020827 -0.010826 0.045987
v 0.017565 -0.016445 -0.001200
v -0.012016 -0.013229 -0.005711
v 0.011541 -0.038413 -0.039358
v -0.010905 -0.039266 -0.037801
v 0.005321 -0.014352 -0.065413
v -0.014469 -0.010227 -0.062478
v 0.016003 0.008437 -0.049251
v -0.014301 0.006140 -0.038322
v 0.003760 0.009026 -0.065466
v -0.005178 0.009643 -0.064675
v 0.003415 0.015704 -0.056933
v -0.005174 0.015626 -0.058921
v 0.003173 0.020720 -0.074050
v -0.003041 0.021025 -0.074952
v 0.003425 0.026469 -0.070966
v -0.003188 0.028620 -0.069962
v 0.004573 0.022576 -0.082050
v -0.000262 0.023171 -0.083656
v 0.003694 0.027614 -0.078568
v -0.001245 0.009540 0.097591
v -0.001283 0.008093 0.099193
v 0.015292 -0.016591 0.076511
v 0.009690 0.000604 0.083478
v 0.022459 -0.028463 0.045697
v -0.021583 -0.025495 0.048579
v 0.017033 -0.031395 -0.038071
v -0.020624 -0.027623 -0.001637
v 0.021910 -0.007153 -0.039824
v -0.023735 -0.014408 -0.035611
v 0.013959 -0.009712 -0.062753
v -0.018948 0.002729 -0.053807
v -0.005216 0.027864 -0.075311
v -0.017998 -0.040356 0.030148
v 0.005592 -0.037444 0.067155
v -0.013353 -0.036343 0.059928
v 0.000622 -0.049627 0.007608
v -0.012485 -0.014929 0.015970
v 0.000550 -0.039510 -0.041050
v -0.019065 -0.031074 -0.038529
v -0.018482 -0.014521 0.052270
vn -0.3764 0.9035 -0.2048
vn 0.4462 0.8917 -0.0768
vn 0.8064 0.5879 0.0635
vn -0.0170 0.9303 0.3665
vn -0.7403 0.0586 0.6697
vn -0.8874 0.4607 0.0138
vn -0.9870 -0.0820 0.1386
vn -0.6762 -0.4096 0.6124
vn 0.2726 -0.5556 0.7855
vn -0.6096 -0.6738 0.4176
vn -0.2761 -0.9470 0.1639
vn 0.2730 -0.8068 0.5240
vn 0.6133 -0.7850 0.0869
vn 0.7371 0.6721 -0.0703
vn -0.4216 0.9019 -0.0942
vn -0.0032 -0.9958 -0.0920
vn 0.5140 -0.7657 -0.3867
vn 0.7447 0.6616 0.0872
vn -0.4575 0.8405 0.2905
vn 0.8907 -0.3939 -0.2270
vn -0.9953 0.0971 0.0002
vn -0.4973 0.7841 0.3713
vn -0.8844 0.3762 -0.2760
vn -0.9927 0.1156 0.0346
vn -0.3933 -0.8358 -0.3831
vn 0.0254 -0.8566 -0.5153
vn -0.6182 0.7584 0.2066
vn 0.7115 0.7027 0.0044
vn 0.4832 0.8302 0.2780
vn -0.7630 0.5740 -0.2974
vn 0.5726 0.7640 -0.2972
vn -0.2842 -0.1761 -0.9425
vn 0.0306 0.4253 0.9045
vn 0.5022 -0.0835 0.8607
vn 0.7004 -0.3458 -0.6243
vn 0.7227 0.6092 0.3264
vn 0.5418 -0.0053 -0.8405
vn 0.9925 0.1133 -0.0463
vn 0.6781 -0.1379 -0.7219
vn -0.8033 -0.5074 -0.3118
vn -0.5949 -0.2168 -0.7740
vn 0.9487 -0.2685 0.1669
vn -0.8341 -0.5510 0.0274
vn -0.5997 -0.0575 -0.7981
vn -0.3537 0.8536 0.3824
vn 0.7698 -0.5482 -0.3269
vn -0.5572 -0.6057 -0.5681
vn 0.8929 -0.1794 0.4130
vn 0.0835 -0.4160 -0.9055
vt 0.848935 0.504702
vt 0.740502 0.727434
vt 0.562204 0.675467
vt 0.712050 0.753621
vt 0.430431 0.013413
vt 0.562500 0.241438
vt 0.500000 0.250000
vt 0.125000 0.561711
vt 0.299466 0.621883
vt 0.125000 0.750000
vt 0.125000 0.500000
vt 0.173194 0.500000
vt 0.280904 0.516418
vt 0.382496 0.500000
vt 0.597098 0.508113
vt 0.867385 0.500000
vt 0.247396 0.500000
vt 0.354167 0.500000
vt 0.625237 0.500000
vt 0.863515 0.500000
vt 0.435963 0.500000
vt 0.524054 0.250000
vt 0.625000 0.250000
vt 0.530177 0.250000
vt 0.528032 0.250000
vt 0.247396 0.500000
vt 0.585474 0.250000
vt 0.609647 0.500000
vt 0.633215 0.500000
vt 0.834064 0.500000
vt 0.875000 0.500000
vt 0.527290 0.261883
vt 0.587452 0.444513
vt 0.394089 0.319496
vt 0.596578 0.903895
vt 0.404678 0.881895
vt 0.339494 0.732503
vt 0.401600 0.490255
vt 0.603898 0.498816
vt 0.373449 0.500000
vt 0.555826 0.500000
vt 0.422252 0.500000
vt 0.437500 0.250000
vt 0.413298 0.250000
vt 0.375000 0.250000
vt 0.492336 0.502930
vt 0.397900 0.250000
vt 0.400037 0.191453
vt 0.404739 0.250000
vt 0.396855 0.500000
vt 0.158680 0.500000
vt 0.233408 0.749998
vt 0.599753 0.000198
vt 0.457184 0.568325
vt 0.297329 0.500000
vt 0.191708 0.500000
vt 0.844121 0.500000
vt 0.405243 0.000000
s 1
usemtl Material.004
f 4/1/1 2/2/2 32/3/3
f 4/1/1 29/4/4 2/2/2
f 6/5/5 49/6/6 34/7/7
f 5/8/8 1/9/9 6/10/5
f 44/11/10 8/12/11 43/13/12
f 43/13/12 8/12/11 7/14/13
f 9/15/14 46/16/15 4/1/1
f 7/14/13 45/17/16 12/18/17
f 10/19/18 11/20/19 46/16/15
f 7/14/13 12/18/17 35/21/20
f 38/22/21 17/23/22 40/24/23
f 36/25/24 11/23/19 38/22/21
f 13/11/25 47/26/26 45/17/16
f 17/23/22 21/27/27 40/24/23
f 16/28/28 20/29/29 11/20/19
f 20/29/29 21/30/27 17/31/22
f 41/32/30 28/33/31 27/34/32
f 2/2/2 29/35/4 32/3/3
f 29/35/4 30/36/33 3/37/34
f 26/38/35 28/33/31 24/39/36
f 16/28/28 18/40/37 20/29/29
f 37/41/38 39/42/39 16/28/28
f 35/21/20 37/41/38 10/19/18
f 37/41/38 16/28/28 10/19/18
f 48/43/40 15/44/41 13/45/25
f 33/46/42 10/19/18 9/15/14
f 34/7/7 44/47/10 5/48/8
f 34/7/7 42/43/43 44/47/10
f 36/25/24 48/43/40 42/43/43
f 21/27/27 41/32/30 19/49/44
f 21/27/27 25/23/45 41/32/30
f 18/40/37 22/50/46 24/39/36
f 19/11/44 23/51/47 18/40/37
f 1/9/9 3/37/34 6/10/5
f 3/37/34 30/52/33 6/10/5
f 6/5/5 29/53/4 49/6/6
f 49/6/6 29/53/4 4/23/1
f 5/8/8 43/13/12 1/9/9
f 31/54/48 9/15/14 32/3/3
f 46/23/15 36/25/24 49/6/6 4/23/1
f 33/46/42 43/13/12 7/14/13
f 34/7/7 49/6/6 36/25/24
f 14/55/49 39/42/39 12/18/17 47/26/26
f 36/25/24 46/23/15 11/23/19
f 43/13/12 5/8/8 44/11/10
f 32/3/3 9/15/14 4/1/1
f 11/20/19 10/19/18 16/28/28
f 7/14/13 8/12/11 45/17/16
f 45/17/16 8/12/11 13/11/25
f 46/16/15 9/15/14 10/19/18
f 33/46/42 7/14/13 35/21/20
f 38/22/21 11/23/19 17/23/22
f 12/18/17 45/17/16 47/26/26
f 14/55/49 47/26/26 13/11/25 15/11/41
f 18/40/37 14/55/49 15/11/41 19/11/44
f 11/20/19 20/29/29 17/31/22
f 37/41/38 35/21/20 39/42/39
f 35/21/20 12/18/17 39/42/39
f 27/56/32 26/38/35 22/50/46 23/51/47
f 43/13/12 33/46/42 31/54/48 1/9/9
f 39/42/39 14/55/49 18/40/37
f 24/39/36 28/33/31 25/57/45
f 41/32/30 25/23/45 28/33/31
f 19/49/44 15/44/41 40/24/23 21/27/27
f 29/53/4 6/5/5 30/58/33
f 32/3/3 29/35/4 3/37/34
f 23/45/47 41/32/30 27/34/32
f 22/50/46 26/38/35 24/39/36
f 27/34/32 28/33/31 26/38/35
f 16/28/28 39/42/39 18/40/37
f 15/44/41 48/43/40 38/22/21 40/24/23
f 36/25/24 38/22/21 48/43/40
f 13/45/25 8/45/11 42/43/43 48/43/40
f 33/46/42 35/21/20 10/19/18
f 44/47/10 42/43/43 8/45/11
f 34/7/7 36/25/24 42/43/43
f 24/39/36 25/57/45 21/30/27 20/29/29
f 9/15/14 31/54/48 33/46/42
f 31/54/48 32/3/3 3/37/34
f 1/9/9 31/54/48 3/37/34
f 5/48/8 6/5/5 34/7/7
f 20/29/29 18/40/37 24/39/36
f 19/49/44 41/32/30 23/45/47
f 18/40/37 23/51/47 22/50/46
